<?xml version="1.0" encoding="UTF-8"?><svg id="Layer_1" xmlns="http://www.w3.org/2000/svg" viewBox="0 0 1040 233"><defs><style>.cls-1{fill:#fff;}</style></defs><g><path class="cls-1" d="M367.58,85.92c-.91-5.71-5.71-14.15-18.04-14.15-9.35,0-15.84,6.23-15.84,13.24,0,5.84,3.63,10.26,10.77,11.82l13.24,2.73c16.23,3.25,24.92,13.5,24.92,26.48,0,14.28-11.55,27.91-32.59,27.91-23.37,0-34.14-15.06-35.57-28.3l14.54-4.15c.91,9.61,7.79,18.43,21.03,18.43,11.03,0,16.75-5.58,16.75-12.72,0-5.97-4.41-10.78-12.33-12.46l-12.98-2.73c-14.02-2.86-23.37-12.07-23.37-25.83,0-15.45,14.15-28.17,31.28-28.17,21.68,0,30.12,13.24,32.19,23.5l-14.02,4.41Z"/><path class="cls-1" d="M406.52,56.71c5.45,0,9.87,4.42,9.87,9.87s-4.42,9.74-9.87,9.74-9.74-4.28-9.74-9.74,4.41-9.87,9.74-9.87Zm-7.4,95.28v-63.22h14.93v63.22h-14.93Z"/><path class="cls-1" d="M435.46,152v-63.22h14.41v8.05c3.63-6.49,11.55-9.87,18.69-9.87,8.31,0,15.58,3.77,18.95,11.16,4.93-8.31,12.33-11.16,20.51-11.16,11.42,0,22.33,7.27,22.33,24.02v41.02h-14.54v-38.55c0-7.4-3.77-12.98-12.2-12.98-7.92,0-13.11,6.23-13.11,14.02v37.52h-14.8v-38.55c0-7.27-3.63-12.98-12.2-12.98-8.05,0-13.11,5.97-13.11,14.02v37.52h-14.93Z"/><path class="cls-1" d="M550.71,176.67V88.78h14.54v8.57c3.12-5.45,10.39-9.99,20.12-9.99,18.69,0,29.21,14.28,29.21,32.97s-11.55,33.23-29.73,33.23c-9.09,0-15.97-3.9-19.21-8.7v31.81h-14.93Zm31.8-75.94c-9.87,0-17.01,7.79-17.01,19.6s7.14,19.86,17.01,19.86,17.01-7.79,17.01-19.86-6.88-19.6-17.01-19.6Z"/><path class="cls-1" d="M631.04,152V58.01h15.06v93.98h-15.06Z"/><path class="cls-1" d="M723.46,133.95c-3.38,11.03-13.37,19.99-28.56,19.99-17.14,0-32.32-12.46-32.32-33.88,0-19.99,14.8-33.23,30.76-33.23,19.47,0,30.9,12.85,30.9,32.84,0,2.47-.26,4.54-.39,4.8h-46.21c.39,9.61,7.92,16.49,17.27,16.49s13.76-4.8,15.83-11.03l12.72,4.02Zm-14.41-20.51c-.26-7.4-5.19-14.02-15.58-14.02-9.48,0-14.93,7.27-15.45,14.02h31.03Z"/><path class="cls-1" d="M769.01,115.65h-11.42v36.35h-15.71V59.96h35.31c17.78,0,28.82,12.33,28.82,27.91,0,13.11-7.92,23.11-20.77,26.22l20.77,37.91h-17.66l-19.34-36.35Zm5.32-13.76c9.61,0,15.83-5.58,15.83-14.02s-6.23-14.15-15.83-14.15h-16.75v28.17h16.75Z"/><path class="cls-1" d="M877,133.95c-3.38,11.03-13.37,19.99-28.56,19.99-17.14,0-32.32-12.46-32.32-33.88,0-19.99,14.8-33.23,30.76-33.23,19.47,0,30.9,12.85,30.9,32.84,0,2.47-.26,4.54-.39,4.8h-46.21c.39,9.61,7.92,16.49,17.27,16.49s13.76-4.8,15.83-11.03l12.72,4.02Zm-14.41-20.51c-.26-7.4-5.19-14.02-15.58-14.02-9.48,0-14.93,7.27-15.45,14.02h31.03Z"/><path class="cls-1" d="M909.18,152h-15.06v-63.22h14.67v8.44c4.15-7.27,11.68-10.26,18.69-10.26,15.45,0,22.85,11.16,22.85,25.06v39.98h-15.06v-37.39c0-7.79-3.51-14.02-12.98-14.02-8.57,0-13.11,6.62-13.11,14.93v36.48Z"/><path class="cls-1" d="M989.65,88.78h13.11v13.37h-13.11v29.34c0,5.58,2.46,7.92,8.05,7.92,2.08,0,4.54-.39,5.19-.52v12.46c-.91,.39-3.77,1.43-9.22,1.43-11.68,0-18.95-7.01-18.95-18.82v-31.8h-11.68v-13.37h3.25c6.75,0,9.74-4.28,9.74-9.87v-9.47h13.63v19.34Z"/><path class="cls-1" d="M1029.36,131.62c5.84,0,10.64,4.8,10.64,10.64s-4.8,10.51-10.64,10.51-10.51-4.67-10.51-10.51,4.67-10.64,10.51-10.64Z"/></g><path class="cls-1" d="M116.02,.67C51.94,.67,0,52.61,0,116.69s51.94,116.02,116.02,116.02,116.02-51.94,116.02-116.02S180.1,.67,116.02,.67Zm78.2,194.22H37.82V38.49H194.22V194.89Z"/></svg>